<?xml version="1.0" encoding="UTF-8"?>
<svg version="1.1" xmlns="http://www.w3.org/2000/svg" width="512" height="512">
<path d="M0 0 C33.93502015 -1.0810325 68.89631032 13.31458296 94.3828125 35.16015625 C95.46949219 36.0728125 95.46949219 36.0728125 96.578125 37.00390625 C100.26614932 40.16933603 103.42374675 43.28275974 106.3828125 47.16015625 C107.2903125 48.04703125 108.1978125 48.93390625 109.1328125 49.84765625 C111.3828125 52.16015625 111.3828125 52.16015625 111.3828125 54.16015625 C112.3728125 54.49015625 113.3628125 54.82015625 114.3828125 55.16015625 C115.78258217 57.11423471 117.1084164 59.12209532 118.3828125 61.16015625 C118.99640625 62.03414062 119.61 62.908125 120.2421875 63.80859375 C141.60288422 94.61389604 151.05819489 133.85001471 144.78076172 170.96875 C141.33033304 189.96939284 135.33699695 207.53455031 125.3828125 224.16015625 C124.898125 225.0109375 124.4134375 225.86171875 123.9140625 226.73828125 C120.41288337 232.60790508 116.32887959 237.8049032 111.8828125 242.97265625 C111.34906006 243.59495117 110.81530762 244.21724609 110.26538086 244.85839844 C107.05864797 248.50563542 103.69059145 251.67162079 99.95166016 254.765625 C98.19599456 256.24434601 98.19599456 256.24434601 96.375 258.703125 C93.7907964 261.89030944 90.82403234 264.08744704 87.5078125 266.47265625 C86.84797363 266.95049561 86.18813477 267.42833496 85.50830078 267.9206543 C63.30507824 283.73508886 39.30142279 292.19219175 12.3828125 295.16015625 C11.27808594 295.29164063 10.17335938 295.423125 9.03515625 295.55859375 C6.48249893 295.83038748 3.94599744 296.02416734 1.3828125 296.16015625 C0.08730469 296.23943359 0.08730469 296.23943359 -1.234375 296.3203125 C-35.16939515 297.401345 -70.13068532 283.00572954 -95.6171875 261.16015625 C-96.34164062 260.55171875 -97.06609375 259.94328125 -97.8125 259.31640625 C-101.50052432 256.15097647 -104.65812175 253.03755276 -107.6171875 249.16015625 C-108.9784375 247.82984375 -108.9784375 247.82984375 -110.3671875 246.47265625 C-112.6171875 244.16015625 -112.6171875 244.16015625 -112.6171875 242.16015625 C-113.6071875 241.83015625 -114.5971875 241.50015625 -115.6171875 241.16015625 C-117.01695717 239.20607779 -118.3427914 237.19821718 -119.6171875 235.16015625 C-120.23078125 234.28617188 -120.844375 233.4121875 -121.4765625 232.51171875 C-142.83725922 201.70641646 -152.29256989 162.47029779 -146.01513672 125.3515625 C-142.56470804 106.35091966 -136.57137195 88.78576219 -126.6171875 72.16015625 C-125.89015625 70.88398438 -125.89015625 70.88398438 -125.1484375 69.58203125 C-121.64725837 63.71240742 -117.56325459 58.5154093 -113.1171875 53.34765625 C-112.58343506 52.72536133 -112.04968262 52.10306641 -111.49975586 51.46191406 C-108.29302297 47.81467708 -104.92496645 44.64869171 -101.18603516 41.5546875 C-99.43036956 40.07596649 -99.43036956 40.07596649 -97.609375 37.6171875 C-95.0251714 34.43000306 -92.05840734 32.23286546 -88.7421875 29.84765625 C-88.08234863 29.36981689 -87.42250977 28.89197754 -86.74267578 28.3996582 C-64.53945324 12.58522364 -40.53579779 4.12812075 -13.6171875 1.16015625 C-12.51246094 1.02867188 -11.40773437 0.8971875 -10.26953125 0.76171875 C-6.84925658 0.39754562 -3.43214871 0.21002701 0 0 Z M-70.6171875 56.16015625 C-71.56335938 56.90007812 -72.50953125 57.64 -73.484375 58.40234375 C-79.45252785 63.14214564 -84.53613965 68.06321179 -89.09375 74.2265625 C-90.6171875 76.16015625 -90.6171875 76.16015625 -92.6171875 77.16015625 C-93.65596143 78.80293636 -94.64881958 80.47491403 -95.6171875 82.16015625 C-96.21015625 83.07410156 -96.803125 83.98804688 -97.4140625 84.9296875 C-113.93463119 110.66873351 -120.64601453 141.26854988 -114.12841797 171.42138672 C-111.72907527 181.9214593 -108.63338704 191.57792892 -103.6171875 201.16015625 C-103.15570313 202.08957031 -102.69421875 203.01898438 -102.21875 203.9765625 C-98.49129897 211.21523122 -93.9763511 218.01855476 -88.6171875 224.16015625 C-87.9571875 224.16015625 -87.2971875 224.16015625 -86.6171875 224.16015625 C-86.35679687 224.74410156 -86.09640625 225.32804688 -85.828125 225.9296875 C-81.46016406 233.97518974 -72.10930689 240.18077844 -64.6171875 245.16015625 C-63.9571875 245.16015625 -63.2971875 245.16015625 -62.6171875 245.16015625 C-62.6171875 245.82015625 -62.6171875 246.48015625 -62.6171875 247.16015625 C-40.19485184 259.85326006 -16.69011095 267.56413811 9.3828125 264.16015625 C10.12805176 264.07878418 10.87329102 263.99741211 11.64111328 263.91357422 C32.96396849 261.56810465 52.6989058 253.79909138 69.3828125 240.16015625 C70.80207031 239.05027344 70.80207031 239.05027344 72.25 237.91796875 C78.21815285 233.17816686 83.30176465 228.25710071 87.859375 222.09375 C89.3828125 220.16015625 89.3828125 220.16015625 91.3828125 219.16015625 C92.42158643 217.51737614 93.41444458 215.84539847 94.3828125 214.16015625 C94.97578125 213.24621094 95.56875 212.33226562 96.1796875 211.390625 C112.70025619 185.65157899 119.41163953 155.05176262 112.89404297 124.89892578 C110.49470027 114.3988532 107.39901204 104.74238358 102.3828125 95.16015625 C101.69058594 93.76603516 101.69058594 93.76603516 100.984375 92.34375 C97.25692397 85.10508128 92.7419761 78.30175774 87.3828125 72.16015625 C86.7228125 72.16015625 86.0628125 72.16015625 85.3828125 72.16015625 C85.12242187 71.57621094 84.86203125 70.99226563 84.59375 70.390625 C80.22578906 62.34512276 70.87493189 56.13953406 63.3828125 51.16015625 C62.7228125 51.16015625 62.0628125 51.16015625 61.3828125 51.16015625 C61.3828125 50.50015625 61.3828125 49.84015625 61.3828125 49.16015625 C19.63605439 25.52765238 -32.16790661 24.72823461 -70.6171875 56.16015625 Z " fill="#000000" transform="translate(255.6171875,107.83984375)"/>
<path d="M0 0 C0.94101562 0.20496094 1.88203125 0.40992188 2.8515625 0.62109375 C15.04137364 3.44898942 25.23463623 10.42784088 35 18 C35.64195312 18.47566406 36.28390625 18.95132813 36.9453125 19.44140625 C40.28188695 22.01234164 41.53334581 24.12384251 43 28 C43.598125 28.26683594 44.19625 28.53367188 44.8125 28.80859375 C49.65714066 31.44719268 52.20331959 37.412795 55 42 C55.55300781 42.886875 56.10601562 43.77375 56.67578125 44.6875 C60.3262996 51.17731041 62.18889946 57.86324282 63.875 65.0625 C64.09051514 65.97241699 64.30603027 66.88233398 64.52807617 67.81982422 C64.72248291 68.71588379 64.91688965 69.61194336 65.1171875 70.53515625 C65.28847168 71.322854 65.45975586 72.11055176 65.63623047 72.92211914 C66.18719452 77.58386661 66 82.30580669 66 87 C55.77 87 45.54 87 35 87 C34.38125 83.3803125 34.38125 83.3803125 33.75 79.6875 C30.7997068 63.59885078 24.23686892 49.69728156 10.625 39.9375 C10.02502197 39.50703369 9.42504395 39.07656738 8.80688477 38.63305664 C-2.97807902 30.58906107 -18.05144967 27.14338797 -32.1328125 29.53125 C-49.3663232 33.58619369 -62.5845493 41.88135779 -72 57 C-79.76822636 70.3549645 -81.95729982 85.88000967 -78.55908203 100.99853516 C-75.3096247 112.63130862 -67.4201511 126.22481364 -56.671875 132.3203125 C-56.12015625 132.54460937 -55.5684375 132.76890625 -55 133 C-55 133.66 -55 134.32 -55 135 C-54.29617187 135.2784375 -53.59234375 135.556875 -52.8671875 135.84375 C-50.96625577 136.61033827 -49.07518155 137.40187097 -47.1953125 138.21875 C-38.30739646 141.92770224 -32.11245153 142.65167313 -22 144 C-22 154.23 -22 164.46 -22 175 C-40.45878706 174.86815152 -54.99531888 171.23306075 -71 162 C-71.66 161.67 -72.32 161.34 -73 161 C-73 160.34 -73 159.68 -73 159 C-73.70511719 158.77183594 -74.41023438 158.54367187 -75.13671875 158.30859375 C-78.56319189 156.74260671 -81.08705374 154.60358042 -83.8125 152.0625 C-84.59971436 151.33268921 -84.59971436 151.33268921 -85.40283203 150.58813477 C-90.34067113 145.88409773 -94.27669187 140.71074964 -98 135 C-98.53109375 134.23558594 -99.0621875 133.47117187 -99.609375 132.68359375 C-113.00072241 112.28594859 -114.04109884 87.11840818 -109.66015625 63.79394531 C-105.50030189 46.18840783 -94.83303496 29.57728825 -81 18 C-80.34 18 -79.68 18 -79 18 C-79 17.34 -79 16.68 -79 16 C-77.02565051 14.57408092 -75.0684566 13.274828 -73 12 C-71.98164063 11.35160156 -70.96328125 10.70320312 -69.9140625 10.03515625 C-61.23737322 4.83120365 -52.78484463 1.53073992 -43 -1 C-42.06800781 -1.24621094 -41.13601562 -1.49242187 -40.17578125 -1.74609375 C-26.83995662 -4.70734118 -13.07281507 -3.46994474 0 0 Z " fill="#000000" transform="translate(279,170)"/>
<path d="M0 0 C10.23 0 20.46 0 31 0 C31.433125 4.640625 31.86625 9.28125 32.3125 14.0625 C35.64389442 47.81990902 45.46462957 80.38305528 67.51953125 106.9296875 C69 109 69 109 69.94921875 111.6328125 C71.238605 114.53752652 72.17290964 114.7435154 75 116 C76.921875 117.875 76.921875 117.875 78.75 120 C79.36359375 120.70125 79.9771875 121.4025 80.609375 122.125 C82 124 82 124 82 126 C82.85464844 126.37125 82.85464844 126.37125 83.7265625 126.75 C86.36049981 128.19821295 88.20180372 129.9232254 90.375 132 C99.31534775 140.1887256 109.41384973 147.1089624 120 153 C120.60150879 153.3388623 121.20301758 153.67772461 121.82275391 154.02685547 C148.84525148 169.16339421 176.2246048 174.44568711 207 176 C207 186.23 207 196.46 207 207 C188.90635042 207.45614243 170.2929912 206.63463181 152.96484375 200.96484375 C149.88282896 199.91832319 149.88282896 199.91832319 146.1796875 199.0859375 C141.69500298 197.98937388 137.47226342 196.39199743 133.1875 194.6875 C132.00184448 194.21957031 132.00184448 194.21957031 130.79223633 193.7421875 C112.51884693 186.47247114 95.30887947 177.4336077 80 165 C79.12472656 164.29875 78.24945313 163.5975 77.34765625 162.875 C59.48024632 148.44073896 59.48024632 148.44073896 58 144 C57.40960938 143.71382812 56.81921875 143.42765625 56.2109375 143.1328125 C53.21005416 141.59525743 51.71497646 139.50763702 49.625 136.875 C48.83609375 135.88371094 48.0471875 134.89242187 47.234375 133.87109375 C41.93547566 127.06219337 36.86620443 120.12633729 32 113 C31.57976562 112.38898438 31.15953125 111.77796875 30.7265625 111.1484375 C26.54312829 104.77501759 23.33032942 97.83852028 19.98754883 91.00097656 C19.32545332 89.6594352 18.65326722 88.32282997 17.97143555 86.99121094 C15.67496664 82.49990129 13.69145641 77.97905142 11.9375 73.25 C11.67928467 72.55753174 11.42106934 71.86506348 11.1550293 71.15161133 C9.35363559 66.21443712 7.89349131 61.26836615 6.73828125 56.13671875 C6.30339678 54.28903499 5.83960294 52.44704777 5.31079102 50.62402344 C3.319686 43.74128277 2.12354385 36.98898145 1.3125 29.875 C1.18512451 28.79420166 1.05774902 27.71340332 0.92651367 26.59985352 C-0.06225777 17.65979466 -0.24289998 8.98729934 0 0 Z " fill="#000000" transform="translate(50,255)"/>
<path d="M0 0 C18.09364958 -0.45614243 36.7070088 0.36536819 54.03515625 6.03515625 C57.11717104 7.08167681 57.11717104 7.08167681 60.8203125 7.9140625 C65.30499702 9.01062612 69.52773658 10.60800257 73.8125 12.3125 C74.60293701 12.62445313 75.39337402 12.93640625 76.20776367 13.2578125 C94.48115307 20.52752886 111.69112053 29.5663923 127 42 C128.31291016 43.051875 128.31291016 43.051875 129.65234375 44.125 C147.51975368 58.55926104 147.51975368 58.55926104 149 63 C149.88558594 63.42925781 149.88558594 63.42925781 150.7890625 63.8671875 C153.78994584 65.40474257 155.28502354 67.49236298 157.375 70.125 C158.55835938 71.61193359 158.55835938 71.61193359 159.765625 73.12890625 C165.06452434 79.93780663 170.13379557 86.87366271 175 94 C175.42023438 94.61101562 175.84046875 95.22203125 176.2734375 95.8515625 C180.45687171 102.22498241 183.66967058 109.16147972 187.01245117 115.99902344 C187.67454668 117.3405648 188.34673278 118.67717003 189.02856445 120.00878906 C191.32503336 124.50009871 193.30854359 129.02094858 195.0625 133.75 C195.32071533 134.44246826 195.57893066 135.13493652 195.8449707 135.84838867 C197.64636441 140.78556288 199.10650869 145.73163385 200.26171875 150.86328125 C200.69660322 152.71096501 201.16039706 154.55295223 201.68920898 156.37597656 C203.680314 163.25871723 204.87645615 170.01101855 205.6875 177.125 C205.87856323 178.74619751 205.87856323 178.74619751 206.07348633 180.40014648 C207.06225777 189.34020534 207.24289998 198.01270066 207 207 C196.77 207 186.54 207 176 207 C175.566875 202.359375 175.13375 197.71875 174.6875 192.9375 C171.35610558 159.18009098 161.53537043 126.61694472 139.48046875 100.0703125 C138 98 138 98 137.05078125 95.3671875 C135.761395 92.46247348 134.82709036 92.2564846 132 91 C130.078125 89.125 130.078125 89.125 128.25 87 C127.63640625 86.29875 127.0228125 85.5975 126.390625 84.875 C125 83 125 83 125 81 C124.14535156 80.62875 124.14535156 80.62875 123.2734375 80.25 C120.63950019 78.80178705 118.79819628 77.0767746 116.625 75 C107.68465225 66.8112744 97.58615027 59.8910376 87 54 C86.39849121 53.6611377 85.79698242 53.32227539 85.17724609 52.97314453 C58.15474852 37.83660579 30.7753952 32.55431289 0 31 C0 20.77 0 10.54 0 0 Z " fill="#000000" transform="translate(253,50)"/>
</svg>
