<svg width="48" height="48" viewBox="0 0 48 48" fill="none" xmlns="http://www.w3.org/2000/svg">
  <defs>
    <linearGradient id="bg48" x1="0%" y1="0%" x2="100%" y2="0%">
      <stop offset="0%" style="stop-color:#1e3a8a;stop-opacity:1" />
      <stop offset="100%" style="stop-color:#cbd5e1;stop-opacity:1" />
    </linearGradient>
  </defs>
  <rect width="48" height="48" rx="6" fill="url(#bg48)"/>
  <circle cx="24" cy="24" r="4.5" fill="white" opacity="0.95"/>
  <circle cx="24" cy="12" r="3" fill="white" opacity="0.9"/>
  <circle cx="24" cy="36" r="3" fill="white" opacity="0.9"/>
  <circle cx="12" cy="24" r="3" fill="white" opacity="0.9"/>
  <circle cx="36" cy="24" r="3" fill="white" opacity="0.9"/>
  <path d="M24 15C24 15 24 21 24 21" stroke="white" stroke-width="3" stroke-linecap="round" opacity="0.8"/>
  <path d="M24 33C24 33 24 27 24 27" stroke="white" stroke-width="3" stroke-linecap="round" opacity="0.8"/>
  <path d="M15 24C15 24 21 24 21 24" stroke="white" stroke-width="3" stroke-linecap="round" opacity="0.8"/>
  <path d="M33 24C33 24 27 24 27 24" stroke="white" stroke-width="3" stroke-linecap="round" opacity="0.8"/>
  <circle cx="37.5" cy="10.5" r="1.5" fill="white" opacity="0.7"/>
  <path d="M24 12C27 15 27 21 24 21" stroke="white" stroke-width="1" stroke-linecap="round" opacity="0.4" fill="none"/>
  <path d="M12 24C15 21 21 21 21 24" stroke="white" stroke-width="1" stroke-linecap="round" opacity="0.4" fill="none"/>
  <path d="M36 24C33 27 27 27 27 24" stroke="white" stroke-width="1" stroke-linecap="round" opacity="0.4" fill="none"/>
  <path d="M24 36C21 33 21 27 24 27" stroke="white" stroke-width="1" stroke-linecap="round" opacity="0.4" fill="none"/>
</svg>