<svg width="128" height="128" viewBox="0 0 128 128" fill="none" xmlns="http://www.w3.org/2000/svg">
  <!-- Soft gradient background -->
  <defs>
    <linearGradient id="backgroundGradient" x1="0%" y1="0%" x2="100%" y2="0%">
      <stop offset="0%" style="stop-color:#1e3a8a;stop-opacity:1" />
      <stop offset="100%" style="stop-color:#cbd5e1;stop-opacity:1" />
    </linearGradient>
  </defs>
  
  <!-- Background with gradient -->
  <rect width="128" height="128" rx="20" fill="url(#backgroundGradient)"/>
  
  <!-- Organic molecular network shape -->
  <!-- Central core node -->
  <circle cx="64" cy="64" r="14" fill="white" opacity="0.95"/>
  
  <!-- Top node -->
  <circle cx="64" cy="32" r="10" fill="white" opacity="0.9"/>
  <path d="M64 42C64 42 64 50 64 54" stroke="white" stroke-width="8" stroke-linecap="round" opacity="0.8"/>
  
  <!-- Bottom node -->
  <circle cx="64" cy="96" r="10" fill="white" opacity="0.9"/>
  <path d="M64 86C64 86 64 78 64 74" stroke="white" stroke-width="8" stroke-linecap="round" opacity="0.8"/>
  
  <!-- Left node -->
  <circle cx="32" cy="64" r="10" fill="white" opacity="0.9"/>
  <path d="M42 64C42 64 50 64 54 64" stroke="white" stroke-width="8" stroke-linecap="round" opacity="0.8"/>
  
  <!-- Right node -->
  <circle cx="96" cy="64" r="10" fill="white" opacity="0.9"/>
  <path d="M86 64C86 64 78 64 74 64" stroke="white" stroke-width="8" stroke-linecap="round" opacity="0.8"/>
  
  <!-- Detached smaller node (offset to the right) -->
  <circle cx="100" cy="28" r="6" fill="white" opacity="0.7"/>
  
  <!-- Subtle organic connections between nodes -->
  <path d="M64 32C70 38 70 50 64 54" stroke="white" stroke-width="3" stroke-linecap="round" opacity="0.4" fill="none"/>
  <path d="M32 64C38 58 50 58 54 64" stroke="white" stroke-width="3" stroke-linecap="round" opacity="0.4" fill="none"/>
  <path d="M96 64C90 70 78 70 74 64" stroke="white" stroke-width="3" stroke-linecap="round" opacity="0.4" fill="none"/>
  <path d="M64 96C58 90 58 78 64 74" stroke="white" stroke-width="3" stroke-linecap="round" opacity="0.4" fill="none"/>
</svg>